<?xml version="1.0" encoding="UTF-8"?>
<svg width="600px" height="400px" viewBox="0 0 600 400" version="1.1" xmlns="http://www.w3.org/2000/svg">
    <g id="doctor-illustration" stroke="none" stroke-width="1" fill="none" fill-rule="evenodd">
        <!-- Background Circle -->
        <circle id="background" fill="#0D6EFD" opacity="0.1" cx="300" cy="200" r="180"></circle>
        
        <!-- Doctor Figure -->
        <g id="doctor" transform="translate(220.000000, 80.000000)">
            <!-- Head -->
            <circle id="head" fill="#FFD7BC" cx="80" cy="60" r="50"></circle>
            
            <!-- Face Elements -->
            <path d="M60,70 C70,80 90,80 100,70" id="smile" stroke="#333333" stroke-width="2" stroke-linecap="round"></path>
            <circle id="eye-left" fill="#333333" cx="60" cy="50" r="5"></circle>
            <circle id="eye-right" fill="#333333" cx="100" cy="50" r="5"></circle>
            
            <!-- Hair -->
            <path d="M40,40 C30,15 60,5 80,10 C100,5 130,15 120,40" id="hair" fill="#333333"></path>
            
            <!-- Body -->
            <rect id="body" fill="#FFFFFF" x="50" y="110" width="60" height="150" rx="30"></rect>
            
            <!-- Lab Coat -->
            <path d="M40,110 L120,110 L130,260 L30,260 Z" id="coat" fill="#FFFFFF" stroke="#CCCCCC" stroke-width="2"></path>
            
            <!-- Stethoscope -->
            <path d="M60,150 C40,160 30,180 50,190 C70,200 130,180 120,150" id="stethoscope" stroke="#0D6EFD" stroke-width="4" stroke-linecap="round"></path>
            <circle id="stethoscope-end" fill="#0D6EFD" cx="50" cy="190" r="8"></circle>
            
            <!-- Medical Cross Badge -->
            <rect id="badge" fill="#0D6EFD" x="90" y="150" width="20" height="20" rx="2"></rect>
            <rect id="cross-h" fill="#FFFFFF" x="95" y="155" width="10" height="2" rx="1"></rect>
            <rect id="cross-v" fill="#FFFFFF" x="99" y="151" width="2" height="10" rx="1"></rect>
        </g>
        
        <!-- Medical Icons -->
        <g id="icons" fill="#0D6EFD" opacity="0.6">
            <!-- Heartbeat -->
            <path d="M100,120 L120,120 L130,100 L150,140 L170,80 L190,120 L210,120" id="heartbeat" stroke="#0D6EFD" stroke-width="3" stroke-linecap="round" transform="translate(155.000000, 110.000000) scale(0.8, 0.8) translate(-155.000000, -110.000000)"></path>
            
            <!-- Pill -->
            <rect id="pill" fill="#0D6EFD" transform="translate(450.000000, 130.000000) rotate(45.000000) translate(-450.000000, -130.000000)" x="435" y="115" width="30" height="15" rx="7.5"></rect>
            
            <!-- Cross -->
            <path d="M130,280 L150,280 L150,260 L170,260 L170,280 L190,280 L190,300 L170,300 L170,320 L150,320 L150,300 L130,300 Z" id="cross-big" fill="#0D6EFD" opacity="0.1" transform="translate(160.000000, 290.000000) scale(0.6, 0.6) translate(-160.000000, -290.000000)"></path>
            
            <!-- Health Data -->
            <rect id="data-1" fill="#0D6EFD" opacity="0.2" x="430" y="250" width="60" height="10" rx="5"></rect>
            <rect id="data-2" fill="#0D6EFD" opacity="0.3" x="430" y="270" width="40" height="10" rx="5"></rect>
            <rect id="data-3" fill="#0D6EFD" opacity="0.4" x="430" y="290" width="50" height="10" rx="5"></rect>
        </g>
    </g>
</svg>